<svg height="139" viewBox="0 0 131 139" width="131" xmlns="http://www.w3.org/2000/svg"
  xmlns:xlink="http://www.w3.org/1999/xlink">
  <filter id="a" height="110.1%" width="110.8%" x="-5.4%" y="-5.1%">
    <feOffset dx="1" dy="2" in="SourceAlpha" result="shadowOffsetOuter1" />
    <feGaussianBlur in="shadowOffsetOuter1" result="shadowBlurOuter1" stdDeviation=".5" />
    <feColorMatrix in="shadowBlurOuter1" result="shadowMatrixOuter1" type="matrix"
      values="0 0 0 0 0   0 0 0 0 0   0 0 0 0 0  0 0 0 1 0" />
    <feMerge>
      <feMergeNode in="shadowMatrixOuter1" />
      <feMergeNode in="SourceGraphic" />
    </feMerge>
  </filter>
  <g fill="none" fill-rule="evenodd" filter="url(#a)" transform="translate(5.208408 5.858702)">
    <path
      d="m88.0542771 49.2227207c-6.2186914 0-11.2579187 5.0436448-11.2579187 11.2612318 0 9.6521689-4.8238757 14.4760446-14.4782533 14.4760446-9.6488557 0-14.4793576-4.8249801-14.4793576-14.4760446 0-6.217587-5.0392273-11.2612318-11.2579187-11.2612318s-11.2579187 5.0436448-11.2579187 11.2612318c0 6.2186914 5.0392273 11.2623362 11.2579187 11.2623362 9.6543776 0 14.4793576 4.82498 14.4793576 14.4793576 0 6.2186914 5.0392273 11.2579187 11.2590231 11.2579187 6.217587 0 11.2645449-5.0392273 11.2645449-11.2579187 0-9.6543776 4.8238757-14.4793576 14.471627-14.4793576 6.2253176 0 11.2645449-5.0436448 11.2645449-11.2623362 0-6.217587-5.0403316-11.2612318-11.2656492-11.2612318z"
      fill="#ede576" transform="matrix(.70710678 -.70710678 .70710678 .70710678 -32.227613 77.093267)" />
    <path
      d="m100.382966 8.75369435c-6.2186912 0-11.2579185 5.04364475-11.2579185 11.26123175 0 9.6521689-4.8238757 14.4760446-14.4782533 14.4760446-9.6488557 0-14.4793576-4.8249801-14.4793576-14.4760446 0-6.217587-5.0392273-11.26123175-11.2579187-11.26123175s-11.2579187 5.04364475-11.2579187 11.26123175c0 6.2186914 5.0392273 11.2623362 11.2579187 11.2623362 9.6543776 0 14.4793576 4.82498 14.4793576 14.4793576 0 6.2186914 5.0392273 11.2579187 11.2590231 11.2579187 6.217587 0 11.2645449-5.0392273 11.2645449-11.2579187 0-9.6543776 4.8238757-14.4793576 14.4716275-14.4793576 6.225317 0 11.264544-5.0436448 11.264544-11.2623362 0-6.217587-5.040331-11.26123175-11.265649-11.26123175z"
      fill="#33b5cc" transform="matrix(-.96592583 -.25881905 .25881905 -.96592583 139.632909 95.509334)" />
    <path
      d="m58.6169753 18.1294451c-6.2186914 0-11.2579186 5.0436448-11.2579186 11.2612318 0 9.6521689-4.8238757 14.4760445-14.4782533 14.4760445-9.6488558 0-14.4793577-4.82498-14.4793577-14.4760445 0-6.217587-5.0392273-11.2612318-11.25791865-11.2612318-6.2186914 0-11.25791869 5.0436448-11.25791869 11.2612318 0 6.2186914 5.03922729 11.2623362 11.25791869 11.2623362 9.65437755 0 14.47935765 4.82498 14.47935765 14.4793576 0 6.2186914 5.0392273 11.2579187 11.259023 11.2579187 6.2175871 0 11.2645449-5.0392273 11.2645449-11.2579187 0-9.6543776 4.8238757-14.4793576 14.4716271-14.4793576 6.2253176 0 11.2645449-5.0436448 11.2645449-11.2623362 0-6.217587-5.0403317-11.2612318-11.2656493-11.2612318z"
      fill="#ec4c4c" transform="matrix(.25881905 .96592583 -.96592583 .25881905 66.580348 11.099324)" />
  </g>
</svg>