<svg height="139" viewBox="0 0 291 139" width="291" xmlns="http://www.w3.org/2000/svg"
  xmlns:xlink="http://www.w3.org/1999/xlink">
  <filter id="a" height="110.1%" width="110.8%" x="-5.4%" y="-5.1%">
    <feOffset dx="1" dy="2" in="SourceAlpha" result="shadowOffsetOuter1" />
    <feGaussianBlur in="shadowOffsetOuter1" result="shadowBlurOuter1" stdDeviation=".5" />
    <feColorMatrix in="shadowBlurOuter1" result="shadowMatrixOuter1" type="matrix"
      values="0 0 0 0 0   0 0 0 0 0   0 0 0 0 0  0 0 0 1 0" />
    <feMerge>
      <feMergeNode in="shadowMatrixOuter1" />
      <feMergeNode in="SourceGraphic" />
    </feMerge>
  </filter>
  <g fill="none" fill-rule="evenodd" transform="translate(-4 8)">
    <g fill="#404a46" fill-rule="nonzero" transform="translate(103.394239 7.464451)">
      <path
        d="m21.4656292 29.4664547c0-2.2549752-.2818719-4.2389197-.8456156-5.9518336-.5637438-1.7129138-1.3876771-2.5693707-2.4717998-2.5693707-.7372034 0-1.387677.433649-1.9514208 1.3009472-.5637438.8672981-.9757104 1.9297384-1.2358999 3.1873207-.2601894 1.2575823-.3902842 2.6018944-.3902842 4.0329364 0 2.2116103.3035544 4.1521899.9106631 5.8217388.6071087 1.669549 1.4744069 2.5043235 2.6018945 2.5043235s1.9731033-.8239333 2.5368471-2.4717998c.5637437-1.6478665.8456156-3.5992873.8456156-5.8542625zm-3.3824627 15.8715562c-3.3824628 0-6.4288476-.6071087-9.13915431-1.8213261-2.71030673-1.2142175-4.8785521-3.0355436-6.50473614-5.4639784-1.62618403-2.4284348-2.43927605-5.2688363-2.43927605-8.5212043 0-4.9435995 1.6912314-8.8681236 5.07369419-11.7735724 3.38246279-2.9054489 7.71895351-4.3581733 13.00947231-4.3581733 5.2905187 0 9.605327 1.4527244 12.9444249 4.3581733 3.3390979 2.9054488 5.0086468 6.8299729 5.0086468 11.7735724 0 4.9002345-1.7020726 8.7597113-5.1062179 11.5784303-3.4041452 2.818719-7.6864298 4.2280785-12.8468538 4.2280785zm43.8419215-5.8542626-.0650473-12.0337618c0-2.4717997-.954028-3.7076996-2.8620839-3.7076996-.3469193 0-.6613149.0433649-.9431868.1300947s-.5420613.1951421-.7805683.3252368-.4553316.3143956-.6504736.5529026c-.1951421.238507-.3686017.4986964-.5203789.7805683s-.2601895.61795-.3252368 1.0082341c-.0650474.3902842-.0975711.8239333-.0975711 1.3009473v7.1552097c0 3.5559224-.574585 6.0819283-1.7237551 7.5780176-1.14917 1.4960893-2.8946075 2.244134-5.2363125 2.244134-2.4284349 0-4.2063961-.6829973-5.3338837-2.0489919s-1.6912314-3.7835882-1.6912314-7.2527808l-.1300947-27.71017594c0-2.68862427.6504736-4.66172756 1.9514209-5.91930988 1.3009472-1.25758232 3.0355435-1.88637348 5.2037889-1.88637348 2.2983401 0 4.0329364.47701398 5.2037889 1.43104195s1.7562787 2.88376635 1.7562787 5.78921516v9.43186739c3.2090032-1.9514208 7.1118449-2.9271313 11.7085251-2.9271313 2.0815155 0 3.7510645.5312202 5.0086468 1.5936604s2.1899278 2.7428304 2.7970365 5.0411705.9106631 5.3122012.9106631 9.0415832c0 1.908056-.0325237 3.5559225-.097571 4.9435995-.0650474 1.387677-.1626185 2.6561006-.2927132 3.8052706-.1300947 1.1491701-.3252368 2.0923568-.5854262 2.8295603-.2601895.7372034-.5637438 1.3659945-.9106631 1.8863734-.3469192.5203789-.7914096.9215043-1.3334709 1.2033762s-1.1383288.4878552-1.7888024.61795c-.6504736.1300947-1.431042.195142-2.341705.195142-2.4284349 0-4.1738724-.4444903-5.2363126-1.3334709-1.0624403-.8889806-1.5936604-2.2441339-1.5936604-4.0654601zm66.300555-1v-11.7735724c0-2.4284348-.975711-3.6426522-2.927131-3.6426522-.867299 0-1.517772.4986964-1.951421 1.4960893s-.650474 2.2549752-.650474 3.772747c0 2.2983401-.032524 4.206396-.097571 5.7241678-.065047 1.5177717-.205983 2.8837663-.422808 4.0979837-.216824 1.2142175-.477014 2.1682454-.780568 2.8620839-.303554.6938386-.715521 1.2684236-1.2359 1.7237551s-1.105805.7588859-1.756279.9106631c-.650473.1517772-1.474407.2276657-2.471799.2276657-1.517772 0-2.742831-.2168245-3.675176-.6504736-.932346-.4336491-1.593661-1.0407578-1.983945-1.8213261s-.585426-1.7562787-.585426-2.9271313v-11.7735724c0-2.4284348-.975711-3.6426522-2.927131-3.6426522-.780569 0-1.420201.4444903-1.918898 1.3334709-.498696.8889806-.748044 2.0489919-.748044 3.4800338v9.0415833c0 2.6018944-.542062 4.4123793-1.626184 5.4314546-1.084123 1.0190754-2.9921788 1.528613-5.724168 1.528613-2.5585296 0-4.3039671-.5962674-5.2363126-1.7888024s-1.3985183-3.154797-1.3985183-5.8867862v-16.0016509c0-2.2116103.5962675-3.9895715 1.7888025-5.3338836 1.1925349-1.3443122 2.7861953-2.0164682 4.780981-2.0164682 3.5559224 0 5.8108974 1.14917 6.7649254 3.4475101 1.647867-1.2142174 3.26321-2.0598331 4.846029-2.5368471s3.436669-.7155209 5.561549-.7155209c3.209003 0 5.529026 1.387677 6.960068 4.1630311.216824-.1734596.433649-.3469193.650473-.5203789 3.339098-2.4284348 7.437082-3.6426522 12.293952-3.6426522 3.078908 0 5.290518 1.1708525 6.63483 3.5125575 1.344313 2.341705 2.016469 6.2662291 2.016469 11.7735724 0 2.2983401-.032524 4.206396-.097571 5.7241678-.065048 1.5177717-.205984 2.8837663-.422808 4.0979837-.216825 1.2142175-.487855 2.1682454-.813092 2.8620839-.325237.6938386-.780569 1.2684236-1.365995 1.7237551s-1.2359.7588859-1.951421.9106631-1.615342.2276657-2.699465.2276657c-1.647867 0-2.981338-.2168245-4.000413-.6504736s-1.745437-1.0407578-2.179086-1.8213261c-.43365-.7805683-.650474-1.7562787-.650474-2.9271313zm53.98931-11.9444249c0 7.4153992-.216825 12.5975057-.650474 15.5463194-.346919 2.6452594-.88898 4.9327582-1.626184 6.8624966-.737203 1.9297384-1.777961 3.6426523-3.122273 5.1387416s-3.057226 2.6127357-5.138742 3.3499391c-2.081515.7372034-4.553315 1.1058051-7.415399 1.1058051-2.29834 0-4.434062-.336078-6.407165-1.0082341-1.973103-.672156-3.53424-1.4960893-4.68341-2.4717997s-2.048992-1.9405796-2.699466-2.8946076c-.650473-.954028-.97571-1.7779612-.97571-2.4717997s.227666-1.3334709.682997-1.9188972c.455332-.5854262 1.073282-.8781394 1.85385-.8781394.563744 0 1.225059.1734597 1.983945.5203789.758886.3469193 1.485248.7372035 2.179086 1.1708525.693839.4336491 1.517772.8239333 2.4718 1.1708525.954028.3469193 1.886373.5203789 2.797037.5203789 2.341705 0 4.000412-.5854262 4.976123-1.7562787.97571-1.1708525 1.463565-2.8404015 1.463565-5.0086468-.737203.3035543-1.452724.5637437-2.146563.7805683-.693838.2168245-1.365994.3902842-2.016468.5203789-.650473.1300947-1.268423.2168245-1.85385.2601894-.585426.0433649-1.160011.0650474-1.723755.0650474-2.558529 0-4.748457-.715521-6.569783-2.1465629-1.821326-1.431042-3.133115-3.198162-3.935366-5.30136-.80225-2.103198-1.203376-4.3690144-1.203376-6.7974493 0-2.4284348.032524-4.4882679.097571-6.1794993.065048-1.6912314.205984-3.1981619.422808-4.5207916.216825-1.3226297.466173-2.3742287.748045-3.154797.281872-.7805684.682997-1.4202007 1.203376-1.9188972.520379-.4986964 1.105805-.8347745 1.756279-1.0082341.650473-.1734596 1.431042-.2601894 2.341705-.2601894 2.731989 0 4.650886.4661727 5.756691 1.3985182 1.105805.9323456 1.658708 2.3959112 1.658708 4.3906969l.065047 10.4726252v1.528613c0 .3252368.032524.7263622.097571 1.2033762.065048.477014.151778.8239332.26019 1.0407578.108412.2168245.260189.4444903.455331.6829973s.455332.4011254.780569.4878552c.325236.0867298.726362.1300947 1.203376.1300947 1.300947 0 2.114039-.3577605 2.439276-1.0732815.325237-.7155209.487855-2.0273094.487855-3.9353653l.065047-10.5376726c0-1.3443121.227666-2.4284348.682998-3.252368.455331-.8239333 1.225058-1.4527244 2.309181-1.8863735s2.55853-.6504736 4.423221-.6504736c1.127487 0 2.092356.1843008 2.894607.5529025.802251.3686018 1.441883.8456157 1.918897 1.431042.477014.5854262.834775 1.4527244 1.073282 2.6018944.238507 1.1491701.401125 2.3091814.487855 3.4800339s.130095 2.7103067.130095 4.6183626z" />
      <path
        d="m47.8304169 65.9359061v8.9114885c2.8620839-2.1248804 5.9626748-3.1873207 9.3017727-3.1873207 3.3824628 0 6.2011818 1.431042 8.456157 4.2931259s3.3824628 6.4830537 3.3824628 10.8629093c0 5.2905188-1.7129139 9.4210262-5.1387416 12.3915224-3.4258277 2.9704965-7.8707307 4.4557445-13.3347091 4.4557445-3.3390978 0-6.2553879-.477014-8.7488701-1.431042s-4.444903-2.3850701-5.8542625-4.2931261c-1.4093595-1.9080559-2.1357217-4.206396-2.1790866-6.8950203l-.1300947-24.5228552c0-2.6886243.6504736-4.6617276 1.9514208-5.9193099 1.3009473-1.2575823 3.0355436-1.8863735 5.2037889-1.8863735 2.4284349 0 4.2172373.5745851 5.3664073 1.7237551 1.1491701 1.1491701 1.7237551 2.9813374 1.7237551 5.496502zm.0650474 27.3198918c.7805683 1.4744069 1.864691 2.2116103 3.2523681 2.2116103 1.1708525 0 2.0815155-.7372034 2.7319891-2.2116103.6504736-1.4744068.9757104-3.1656382.9757104-5.0736942 0-1.0407578-.0867298-2.0598331-.2601894-3.057226-.1734596-.9973928-.4119666-1.8972147-.715521-2.6994655-.3035543-.8022507-.6938385-1.4527244-1.1708525-1.9514208s-1.0190753-.7480447-1.626184-.7480447c-1.3443121 0-2.4067524.8022508-3.1873207 2.4067524v4.8460284zm47.4845738-5.4639783c0-2.2549752-.2818719-4.2389198-.8456157-5.9518336-.5637438-1.7129139-1.3876771-2.5693708-2.4717998-2.5693708-.7372034 0-1.387677.4336491-1.9514208 1.3009472-.5637438.8672982-.9757104 1.9297384-1.2358999 3.1873208-.2601894 1.2575823-.3902841 2.6018944-.3902841 4.0329364 0 2.2116102.3035543 4.1521899.910663 5.8217388s1.4744069 2.5043234 2.6018945 2.5043234 1.9731033-.8239332 2.5368471-2.4717997.8456157-3.5992874.8456157-5.8542625zm-3.3824628 15.8715564c-3.3824628 0-6.4288476-.607109-9.1391543-1.821326-2.7103067-1.214218-4.8785521-3.0355439-6.5047361-5.4639787-1.6261841-2.4284349-2.4392761-5.2688363-2.4392761-8.5212044 0-4.9435994 1.6912314-8.8681236 5.0736942-11.7735724s7.7189536-4.3581732 13.0094723-4.3581732 9.6053267 1.4527244 12.9444247 4.3581732 5.008647 6.829973 5.008647 11.7735724c0 4.9002346-1.702073 8.7597113-5.106218 11.5784303-3.404145 2.8187188-7.6864297 4.2280788-12.8468537 4.2280788zm40.0691747-6.8950206c-.08673.1300947-.368602.4336491-.845616.9106631s-.791409.8022508-.943187.9757104c-.151777.1734596-.455331.4878552-.910663.9431867-.455331.4553314-.80225.7805684-1.040757.9757104s-.574585.466173-1.008234.813092c-.43365.346919-.813093.596268-1.138329.748045-.325237.151777-.682998.325237-1.073282.520379s-.780568.336078-1.170852.422807c-.390284.08673-.780569.130095-1.170853.130095-1.908056 0-3.729382-.780568-5.463978-2.341705-1.734596-1.5611365-2.601895-3.2306854-2.601895-5.0086466 0-.4336491.184301-.9215043.552903-1.4635657.368602-.5420613.910663-1.1383288 1.626184-1.7888024s1.344312-1.2142174 1.886373-1.6912314c.542062-.477014 1.2359-1.0407578 2.081516-1.6912314s1.355153-1.0624402 1.528613-1.2358999c-.346919-.2601894-.845616-.6613148-1.496089-1.2033761-.650474-.5420614-1.192535-1.0082341-1.626184-1.3985183s-.932346-.8781394-1.49609-1.4635656c-.563743-.5854263-1.008234-1.1491701-1.333471-1.6912314-.325236-.5420614-.617949-1.1600113-.878139-1.8538498-.260189-.6938386-.390284-1.4093595-.390284-2.146563 0-1.4744068.715521-2.8404014 2.146563-4.0979837 1.431042-1.2575824 2.905449-1.8863735 4.42322-1.8863735.823934 0 1.626184.1734596 2.406753.5203789.780568.3469192 1.528613.8347745 2.244134 1.4635656.715521.6287912 1.365994 1.2575823 1.951421 1.8863735.585426.6287912 1.235899 1.3659946 1.95142 2.2116103s1.311789 1.4852481 1.788803 1.9188971c.477014-.433649 1.214217-1.2358998 2.21161-2.4067523s1.821326-2.0923568 2.4718-2.7645129 1.496089-1.3117884 2.536847-1.9188972c1.040758-.6071087 2.059833-.910663 3.057226-.910663.607109 0 1.2359.1192535 1.886373.3577605.650474.238507 1.246742.5637438 1.788803.9757104s1.040758.8672981 1.496089 1.3659946c.455332.4986964.802251 1.0407578 1.040758 1.626184.238507.5854263.35776 1.1600113.35776 1.7237551 0 .7372034-.130094 1.4635656-.390284 2.1790866-.260189.715521-.758886 1.4960893-1.496089 2.341705s-1.268424 1.4527244-1.59366 1.8213261c-.325237.3686017-1.019076 1.0190754-2.081516 1.9514209s-1.59366 1.3985182-1.59366 1.3985182c.130094.1734597.628791.5854263 1.496089 1.2358999s1.571978 1.2142174 2.114039 1.6912314c.542062.477014 1.160012 1.0407578 1.85385 1.6912314.693839.6504736 1.225059 1.2467411 1.59366 1.7888024.368602.5420614.552903 1.0299166.552903 1.4635657 0 1.7779612-.867298 3.4475101-2.601894 5.0086466-1.734597 1.561137-3.555923 2.341705-5.463979 2.341705-.433649 0-.878139-.065047-1.333471-.195142-.455331-.130095-.867298-.271031-1.2359-.422808-.368601-.151777-.791409-.401125-1.268423-.748044-.477014-.34692-.856457-.628792-1.138329-.845616-.281872-.216825-.672156-.563744-1.170852-1.0407579-.498697-.477014-.845616-.813092-1.040758-1.0082341s-.552903-.574585-1.073282-1.1383288-.845615-.9106631-.97571-1.0407578z" />
    </g>
    <g filter="url(#a)">
      <path
        d="m88.0542771 49.2227207c-6.2186914 0-11.2579187 5.0436448-11.2579187 11.2612318 0 9.6521689-4.8238757 14.4760446-14.4782533 14.4760446-9.6488557 0-14.4793576-4.8249801-14.4793576-14.4760446 0-6.217587-5.0392273-11.2612318-11.2579187-11.2612318s-11.2579187 5.0436448-11.2579187 11.2612318c0 6.2186914 5.0392273 11.2623362 11.2579187 11.2623362 9.6543776 0 14.4793576 4.82498 14.4793576 14.4793576 0 6.2186914 5.0392273 11.2579187 11.2590231 11.2579187 6.217587 0 11.2645449-5.0392273 11.2645449-11.2579187 0-9.6543776 4.8238757-14.4793576 14.471627-14.4793576 6.2253176 0 11.2645449-5.0436448 11.2645449-11.2623362 0-6.217587-5.0403316-11.2612318-11.2656492-11.2612318z"
        fill="#ede576" transform="matrix(.70710678 -.70710678 .70710678 .70710678 -32.227613 77.093267)" />
      <path
        d="m100.382966 8.75369435c-6.2186912 0-11.2579185 5.04364475-11.2579185 11.26123175 0 9.6521689-4.8238757 14.4760446-14.4782533 14.4760446-9.6488557 0-14.4793576-4.8249801-14.4793576-14.4760446 0-6.217587-5.0392273-11.26123175-11.2579187-11.26123175s-11.2579187 5.04364475-11.2579187 11.26123175c0 6.2186914 5.0392273 11.2623362 11.2579187 11.2623362 9.6543776 0 14.4793576 4.82498 14.4793576 14.4793576 0 6.2186914 5.0392273 11.2579187 11.2590231 11.2579187 6.217587 0 11.2645449-5.0392273 11.2645449-11.2579187 0-9.6543776 4.8238757-14.4793576 14.4716275-14.4793576 6.225317 0 11.264544-5.0436448 11.264544-11.2623362 0-6.217587-5.040331-11.26123175-11.265649-11.26123175z"
        fill="#33b5cc" transform="matrix(-.96592583 -.25881905 .25881905 -.96592583 139.632909 95.509334)" />
      <path
        d="m58.6169753 18.1294451c-6.2186914 0-11.2579186 5.0436448-11.2579186 11.2612318 0 9.6521689-4.8238757 14.4760445-14.4782533 14.4760445-9.6488558 0-14.4793577-4.82498-14.4793577-14.4760445 0-6.217587-5.0392273-11.2612318-11.25791865-11.2612318-6.2186914 0-11.25791869 5.0436448-11.25791869 11.2612318 0 6.2186914 5.03922729 11.2623362 11.25791869 11.2623362 9.65437755 0 14.47935765 4.82498 14.47935765 14.4793576 0 6.2186914 5.0392273 11.2579187 11.259023 11.2579187 6.2175871 0 11.2645449-5.0392273 11.2645449-11.2579187 0-9.6543776 4.8238757-14.4793576 14.4716271-14.4793576 6.2253176 0 11.2645449-5.0436448 11.2645449-11.2623362 0-6.217587-5.0403317-11.2612318-11.2656493-11.2612318z"
        fill="#ec4c4c" transform="matrix(.25881905 .96592583 -.96592583 .25881905 66.580348 11.099324)" />
    </g>
  </g>
</svg>